<?xml version="1.0" encoding="utf-8"?>
<!-- Generator: Adobe Illustrator 24.1.0, SVG Export Plug-In . SVG Version: 6.00 Build 0)  -->
<svg version="1.1" id="Calque_2" xmlns="http://www.w3.org/2000/svg" xmlns:xlink="http://www.w3.org/1999/xlink" x="0px" y="0px"
	 viewBox="0 0 338.7 100" style="enable-background:new 0 0 338.7 100;" xml:space="preserve">
<style type="text/css">
	.st0{fill:#B4A269;}
</style>
<path class="st0" d="M71.6,73.1H58.2V7.7h13.4V73.1z M20.8,53.9C20,54.5,19.4,55.2,19,56c-0.1,0.3-0.2,0.5-0.3,0.8l0,0.2
	c-0.4,1.1-0.4,2.2-0.1,3.4c0.1,0.4,0.2,0.7,0.3,1.1c0.2,0.3,0.4,0.6,0.6,0.9c0.9,1.2,2.2,1.8,4,2c4.2-0.1,6.8-2.1,7.8-5.8v-6.8h-4
	C24.3,52.1,22.1,52.9,20.8,53.9 M26.2,27.2c0.2,0,0.3,0,0.5,0.1c1.4,0.1,2.9,0.3,4.3,0.5c1.5,0.2,2.9,0.6,4.2,1.2
	c1.3,0.6,2.5,1.3,3.6,2.1c1.4,1.2,2.5,2.8,3.4,4.7c1.4,3.1,2.1,6.3,2.1,9.7c0,1.4,0,2.8,0.1,4.1v17.6l0.6,5.4l-11.9,0.2L32,68.1
	c-3.7,4.6-9.1,6.4-16.3,5.5C9.2,71.8,5.6,67.5,5.1,60.8c-0.1-1.9,0.1-3.6,0.5-5.2c0.3-1.2,0.9-2.4,1.6-3.5C8,50.9,8.9,49.9,10,49
	c1-0.9,2.1-1.6,3.3-2.2c1-0.5,2-1,3.1-1.5c3.9-1.4,8.8-2.1,14.6-2c-0.1-4.1-2.5-6.3-7-6.7c-4.6,0-9.1,1-13.3,3.1L8.3,31l4.9-2
	C17,27.6,21.3,27,26.2,27.2 M145.1,29.5c3.7,2.7,5.9,6.5,6.6,11.3c0.2,1.5,0.3,2.9,0.3,4.4c0,0.1,0,0.1,0,0.2v27.6L138.6,73V46.8
	c0.1-4.5-1.3-7.3-4.3-8.4c-0.1,0-0.1,0-0.2,0c-0.6-0.1-1.2-0.2-1.8-0.2c-0.4,0-0.7,0-1.1,0c-1.7,0.3-3,1.2-4.1,2.5
	c-0.2,0.3-0.4,0.5-0.6,0.8c-0.1,0.2-0.3,0.5-0.4,0.7c-0.3,0.6-0.4,1-0.4,1.2v29.5L112,73V46c0-1.2-0.1-2.3-0.3-3.1
	c-0.5-1.6-1.5-2.9-3-3.9c-0.3-0.2-0.5-0.3-0.8-0.4c-0.7-0.3-1.5-0.5-2.4-0.5c-2.4,0.2-4.3,1.2-5.5,3.1c-0.3,0.5-0.6,1.1-0.9,1.8
	c-0.4,0.9-0.6,1.9-0.5,3v26.8H85.5V28.3h11.4v5.8l0.8,0.1c2.6-4,6.1-6.2,10.4-6.8c3.5-0.4,6.7,0.1,9.5,1.5c2.5,1.6,4.2,3.4,5.2,5.7
	h0.8c2.6-4,6.2-6.4,10.9-7.1c4.1-0.5,7.6,0.1,10.5,1.9C144.9,29.4,145,29.4,145.1,29.5 M242.8,27.4v12.7c-3.3-0.6-6.1-0.3-8.7,0.8
	c-2.8,1.7-4.3,4.2-4.7,7.5V73h-13.7V28h12v8.3h0.5c1.4-3.7,3.3-6.2,5.9-7.5C237.2,27.1,240.1,26.6,242.8,27.4 M199.2,32.5
	c0.3,0.3,0.5,0.7,0.8,1c1.3,1.7,2.3,3.6,3,5.6c0.7,2.1,1.2,4.2,1.5,6.4c0.3,2.2,0.4,4.4,0.2,6.6c-0.1,0.9-0.2,1.7-0.4,2.6H176
	c0.1,2,0.9,3.9,2.4,5.7c1.6,1.4,3.6,2.3,5.8,2.8c3.6,0.7,7.7,0.6,12.1-0.3c1.5-0.3,2.9-0.8,4.3-1.3l1.6,9.5c-3.3,1.6-7.3,2.5-12,2.7
	c-2.2,0.1-4.4,0.1-6.5-0.1c-2-0.1-3.9-0.5-5.7-1c-0.4-0.1-0.7-0.3-1.1-0.4c-6.7-2.6-11-7.4-13.1-14.6c-1.3-4.6-1.2-9.4,0.2-14.4
	c1.8-6.4,5.7-11.2,11.5-14.3c1.7-0.9,3.5-1.5,5.3-1.8c4.8-0.9,9.3-0.3,13.6,1.8C196.3,29.9,197.9,31.1,199.2,32.5 M192.7,45.5
	c-0.5-5-2.6-8-6.1-9c-1.9-0.4-3.6-0.3-5,0.2c-3.2,1.2-5.2,4.1-5.9,8.8H192.7z M264.3,27.9l8.8,30.6l7.9-30.6h14.4l-11.1,31.7
	c-2.4,8.4-6.3,16.5-11.8,24.3c-4,5.3-9.3,8.3-16.1,9.1l-2.8-11.7c5-0.9,8.7-3.2,11.2-7.1c0.6-0.9,1-1.7,1.1-2.3v-1.7l-17-42.3H264.3
	z M314.5,40.4c0.3,2.6,2.5,4.2,6.3,4.9c7.5,2.1,11.7,6.1,12.7,12.2c0.6,6.5-1.9,11.2-7.4,14c-4.7,2.1-10.5,2.8-17.4,2
	c-3-0.6-5.8-1.5-8.2-2.7l2.3-9.9c6.7,3,11.6,4,14.8,2.9c1.9-0.7,2.9-1.7,3-3.1c-0.1-2.2-1.1-3.6-3-4.2c0,0-0.1,0-0.1,0
	c-6.5-1.7-11.3-4.6-14.1-8.4c-2-3.1-2.4-6.5-1.3-10c2.4-7,7.7-10.6,16.1-10.8c4.9-0.1,9.4,0.7,13.5,2.5l-2.4,9.6
	c-2-1.3-4.5-2.1-7.6-2.5c-3-0.3-5.1,0.2-6.4,1.4C314.8,38.8,314.5,39.5,314.5,40.4"/>
</svg>
